<svg width="529" height="75" viewBox="0 0 529 75" fill="none" xmlns="http://www.w3.org/2000/svg">
<g clip-path="url(#clip0_4656_428713)">
<path d="M216.658 15.8925V60.6573" stroke="#004190" stroke-width="1.26795" stroke-miterlimit="10"/>
<path d="M245.904 19.8271L244.157 21.2559C243.78 20.311 243.148 19.4891 242.332 18.8819C241.463 18.3675 240.461 18.1227 239.453 18.1785C238.382 18.1167 237.32 18.3977 236.419 18.9808C236.079 19.2021 235.801 19.5052 235.609 19.8625C235.416 20.2197 235.317 20.6195 235.32 21.0251C235.304 21.5115 235.455 21.9888 235.749 22.3769C236.146 22.7978 236.641 23.1148 237.189 23.3002C238.09 23.6236 239.022 23.8555 239.969 23.9926C241.654 24.1637 243.272 24.7407 244.684 25.6741C245.141 26.0465 245.505 26.5208 245.745 27.0591C245.986 27.5974 246.097 28.1846 246.069 28.7735C246.085 29.6744 245.803 30.5553 245.267 31.2793C244.681 32.0392 243.892 32.6182 242.992 32.9499C241.911 33.3737 240.757 33.5791 239.596 33.5544C238.088 33.5997 236.594 33.2592 235.254 32.5652C234.12 31.9496 233.177 31.0331 232.529 29.9165L234.276 28.4987C234.701 29.4577 235.406 30.266 236.298 30.8177C237.3 31.3922 238.442 31.6775 239.596 31.642C240.692 31.6937 241.783 31.4468 242.75 30.9276C243.112 30.7227 243.412 30.4233 243.617 30.0613C243.822 29.6993 243.925 29.2884 243.915 28.8724C243.916 28.5133 243.823 28.1603 243.645 27.8481C243.468 27.5359 243.213 27.2753 242.904 27.0919C241.774 26.5125 240.549 26.1402 239.288 25.9929C237.598 25.7997 235.975 25.2247 234.54 24.3113C234.08 23.9528 233.714 23.4891 233.471 22.9593C233.228 22.4295 233.116 21.849 233.144 21.2669C233.139 20.3777 233.403 19.5078 233.903 18.772C234.455 17.9777 235.216 17.3505 236.101 16.9586C237.136 16.4914 238.262 16.2623 239.398 16.2881C240.704 16.1968 242.008 16.4828 243.156 17.1123C244.304 17.7417 245.246 18.6879 245.871 19.8381" fill="#004190"/>
<path d="M263.445 27.0478C263.509 27.9318 263.392 28.8195 263.101 29.6567C262.81 30.4938 262.351 31.2628 261.753 31.9167C260.402 33.0854 258.644 33.6739 256.862 33.5542C255.977 33.6172 255.089 33.5028 254.249 33.2178C253.409 32.9328 252.635 32.483 251.971 31.8947C251.372 31.2456 250.913 30.4806 250.622 29.6469C250.331 28.8131 250.214 27.9285 250.279 27.0478V16.5298H252.312V26.5422C252.194 27.9227 252.585 29.2985 253.411 30.4109C253.864 30.8522 254.406 31.1906 255.002 31.4031C255.598 31.6155 256.232 31.697 256.862 31.6419C257.49 31.6954 258.122 31.6131 258.716 31.4007C259.309 31.1883 259.85 30.8508 260.302 30.4109C261.128 29.2985 261.519 27.9227 261.401 26.5422V16.5298H263.445V27.0478Z" fill="#004190"/>
<path d="M278.887 17.9147C279.402 18.3822 279.808 18.9573 280.076 19.5994C280.344 20.2414 280.467 20.9346 280.437 21.6296C280.468 22.3263 280.345 23.0214 280.077 23.6653C279.809 24.3093 279.403 24.8863 278.887 25.3554C277.748 26.3167 276.287 26.8114 274.798 26.7402H270.908V33.3346H268.864V16.5629H274.798C276.287 16.4917 277.748 16.9864 278.887 17.9477V17.9147ZM277.381 24.0145C277.704 23.7067 277.954 23.3311 278.113 22.9149C278.273 22.4986 278.338 22.0521 278.304 21.6076C278.338 21.1647 278.273 20.7199 278.113 20.3055C277.954 19.891 277.703 19.5173 277.381 19.2116C276.542 18.6136 275.518 18.3296 274.491 18.4093H270.908V24.8168H274.491C275.518 24.8966 276.542 24.6126 277.381 24.0145" fill="#004190"/>
<path d="M296.648 31.4001V33.3015H284.503V16.5298H296.263V18.4312H286.536V23.8495H294.109V25.7509H286.536V31.4001H296.648Z" fill="#004190"/>
<path d="M306.891 26.3335H302.934V33.3016H300.846V16.5299H307.199C308.684 16.4568 310.144 16.9255 311.309 17.8488C311.816 18.2927 312.216 18.8457 312.479 19.4662C312.741 20.0868 312.86 20.7587 312.826 21.4317C312.86 22.5172 312.51 23.5799 311.837 24.4321C311.14 25.2721 310.186 25.8592 309.122 26.1027L313.848 33.3016H311.43L306.891 26.3335ZM302.934 24.4321H307.221C309.595 24.4321 310.782 23.432 310.782 21.4317C310.782 19.4314 309.595 18.4313 307.221 18.4313H302.934V24.4321Z" fill="#004190"/>
<path d="M319.893 16.5298H317.86V33.3015H319.893V16.5298Z" fill="#004190"/>
<path d="M338.676 33.3015H336.159L329.147 22.0691L327.366 18.7609H327.344L327.443 21.4646V33.3015H325.509V16.5298H328.026L335.016 27.7072L336.818 31.0704H336.851L336.741 28.3777V16.5298H338.676V33.3015Z" fill="#004190"/>
<path d="M356.085 18.4312H350.238V33.3015H348.205V18.4312H342.358V16.5298H356.085V18.4312Z" fill="#004190"/>
<path d="M371.912 31.4001V33.3015H359.767V16.5298H371.527V18.4312H361.8V23.8495H369.373V25.7509H361.8V31.4001H371.912Z" fill="#004190"/>
<path d="M389.266 33.3015H386.749L379.737 22.0691L377.956 18.7609H377.934L378.033 21.4646V33.3015H376.11V16.5298H378.627L385.606 27.7072L387.419 31.0704H387.441L387.342 28.3777V16.5298H389.266V33.3015Z" fill="#004190"/>
<path d="M406.499 18.717C407.271 19.544 407.865 20.5212 408.243 21.5876C408.622 22.6541 408.776 23.787 408.697 24.9157C408.774 26.0443 408.619 27.1767 408.241 28.2428C407.862 29.309 407.27 30.2863 406.499 31.1144C405.663 31.8734 404.685 32.4586 403.621 32.8359C402.556 33.2133 401.428 33.3753 400.301 33.3126H394.893V16.5409H400.301C401.428 16.475 402.558 16.6356 403.622 17.0131C404.687 17.3907 405.665 17.9775 406.499 18.739V18.717ZM404.994 29.7296C406.13 28.4141 406.706 26.7058 406.598 24.9707C406.705 23.2323 406.13 21.5209 404.994 20.2008C404.41 19.6145 403.708 19.1586 402.935 18.863C402.162 18.5675 401.336 18.4391 400.509 18.4862H396.915V31.4442H400.509C401.336 31.4913 402.162 31.3629 402.935 31.0673C403.708 30.7718 404.41 30.3159 404.994 29.7296" fill="#004190"/>
<path d="M425.48 31.4001V33.3015H413.335V16.5298H425.095V18.4312H415.368V23.8495H422.941V25.7509H415.368V31.4001H425.48Z" fill="#004190"/>
<path d="M442.834 33.3015H440.317L433.305 22.0691L431.525 18.7609H431.503L431.602 21.4646V33.3015H429.667V16.5298H432.184L439.174 27.7072L440.988 31.0704H441.01L440.911 28.3777V16.5298H442.834V33.3015Z" fill="#004190"/>
<path d="M459.386 32.3453C458.147 33.1595 456.692 33.5808 455.21 33.5543C453.764 33.5758 452.341 33.1953 451.099 32.4552C449.921 31.7439 448.981 30.6999 448.395 29.4548C447.728 28.021 447.401 26.4526 447.439 24.8717C447.402 23.2944 447.73 21.7299 448.395 20.2996C448.977 19.0463 449.918 17.9943 451.099 17.2772C452.328 16.545 453.735 16.1647 455.166 16.1781C456.584 16.1345 457.986 16.4804 459.221 17.1783C460.332 17.8627 461.192 18.8883 461.672 20.1018L459.661 21.036C459.356 20.1541 458.788 19.3869 458.034 18.8378C457.227 18.318 456.279 18.0607 455.32 18.1015C454.256 18.0749 453.207 18.3533 452.297 18.9038C451.409 19.4572 450.708 20.2653 450.286 21.2228C449.787 22.3615 449.543 23.5957 449.571 24.8387C449.467 26.6125 450.005 28.3646 451.088 29.7735C451.592 30.3677 452.226 30.8383 452.94 31.1489C453.655 31.4595 454.431 31.6018 455.21 31.565C456.26 31.5913 457.293 31.2918 458.166 30.7077C459.023 30.0804 459.649 29.188 459.947 28.1689L461.969 28.9272C461.485 30.2754 460.579 31.4317 459.386 32.2244" fill="#004190"/>
<path d="M468.046 16.5298H466.013V33.3015H468.046V16.5298Z" fill="#004190"/>
<path d="M483.093 28.6524H475.487L473.718 33.3015H471.575L478.114 16.5298H480.521L487.028 33.3015H484.829L483.093 28.6524ZM482.356 26.7401L480.092 20.7942L479.301 18.4531L478.554 20.7172L476.268 26.7401H482.356Z" fill="#004190"/>
<path d="M509.954 18.717C510.724 19.5451 511.317 20.5225 511.695 21.5886C512.073 22.6548 512.229 23.7871 512.152 24.9157C512.227 26.0441 512.07 27.1759 511.692 28.2418C511.314 29.3077 510.723 30.2852 509.954 31.1144C509.116 31.8737 508.135 32.459 507.069 32.8363C506.004 33.2137 504.873 33.3755 503.744 33.3125H498.337V16.5408H503.744C504.873 16.4754 506.004 16.6361 507.071 17.0136C508.137 17.391 509.117 17.9776 509.954 18.739V18.717ZM508.437 29.7296C509.576 28.4151 510.156 26.7071 510.053 24.9707C510.157 23.2308 509.577 21.5192 508.437 20.2007C507.853 19.6144 507.152 19.1585 506.379 18.863C505.606 18.5675 504.779 18.4391 503.953 18.4862H500.37V31.4441H503.953C504.779 31.4913 505.606 31.3628 506.379 31.0673C507.152 30.7718 507.853 30.3159 508.437 29.7296" fill="#004190"/>
<path d="M528.923 31.4001V33.3015H516.779V16.5298H528.539V18.4312H518.812V23.8495H526.385V25.7509H518.812V31.4001H528.923Z" fill="#004190"/>
<path d="M245.904 46.9299L244.157 48.3587C243.778 47.4178 243.147 46.5999 242.332 45.9957C241.463 45.4813 240.461 45.2365 239.453 45.2923C238.382 45.2305 237.32 45.5116 236.419 46.0946C236.082 46.318 235.804 46.6217 235.613 46.9784C235.421 47.3352 235.32 47.7339 235.32 48.1389C235.304 48.6253 235.455 49.1026 235.749 49.4907C236.146 49.9116 236.641 50.2286 237.189 50.414C238.091 50.7366 239.022 50.9721 239.969 51.1174C241.653 51.2772 243.272 51.847 244.684 52.7769C245.141 53.1515 245.503 53.6282 245.742 54.1684C245.98 54.7087 246.089 55.2975 246.058 55.8873C246.077 56.7887 245.795 57.6706 245.256 58.3932C244.671 59.1566 243.882 59.7394 242.981 60.0747C241.897 60.4892 240.744 60.6908 239.585 60.6682C238.077 60.7135 236.583 60.373 235.243 59.6791C234.098 59.0577 233.153 58.1239 232.518 56.9864L234.265 55.5686C234.69 56.5276 235.395 57.3358 236.287 57.8876C237.288 58.4653 238.43 58.7544 239.585 58.7229C240.683 58.7768 241.775 58.5258 242.739 57.9975C243.103 57.7944 243.404 57.4954 243.609 57.1329C243.815 56.7705 243.917 56.3587 243.904 55.9422C243.906 55.5844 243.814 55.2324 243.636 54.9217C243.459 54.611 243.202 54.3526 242.893 54.1728C241.763 53.5924 240.538 53.2201 239.277 53.0737C237.585 52.8911 235.959 52.3152 234.529 51.3921C234.069 51.0342 233.702 50.5707 233.459 50.0407C233.216 49.5107 233.104 48.93 233.133 48.3477C233.128 47.4585 233.392 46.5886 233.892 45.8528C234.444 45.0586 235.205 44.4313 236.09 44.0394C237.125 43.5722 238.251 43.3431 239.387 43.369C240.692 43.279 241.997 43.5656 243.144 44.1949C244.292 44.8242 245.234 45.7696 245.86 46.9189" fill="#004190"/>
<path d="M261.962 58.5031V60.4045H249.817V43.6328H261.577V45.5452H251.85V50.9526H259.423V52.8539H251.85V58.5031H261.962Z" fill="#004190"/>
<path d="M278.755 51.9417V60.4045H277.261L277.184 58.1404C276.695 58.9537 275.976 59.6038 275.117 60.0088C274.106 60.4643 273.006 60.686 271.897 60.6573C270.452 60.6787 269.028 60.2982 267.787 59.5582C266.606 58.8476 265.661 57.8037 265.072 56.5578C264.414 55.1214 264.091 53.5542 264.127 51.9747C264.087 50.3948 264.422 48.8279 265.105 47.4026C265.703 46.1492 266.659 45.1012 267.853 44.3911C269.092 43.6541 270.51 43.2738 271.952 43.2921C273.377 43.2351 274.792 43.5575 276.052 44.2263C277.184 44.9191 278.089 45.9276 278.656 47.1278L276.799 48.1389C276.468 47.2181 275.826 46.4411 274.985 45.9408C274.067 45.4044 273.015 45.1378 271.952 45.1715C270.898 45.1503 269.86 45.4326 268.963 45.9848C268.092 46.5572 267.402 47.3653 266.973 48.3148C266.474 49.4458 266.23 50.6728 266.259 51.9087C266.132 53.7275 266.667 55.5307 267.765 56.9864C268.289 57.5862 268.945 58.0576 269.68 58.3644C270.416 58.6711 271.212 58.8051 272.007 58.7559C273.289 58.8181 274.553 58.4292 275.579 57.6568C276.043 57.2687 276.41 56.7773 276.651 56.2219C276.891 55.6666 276.998 55.0627 276.964 54.4586V53.8651H271.6V51.9637L278.755 51.9417Z" fill="#004190"/>
<path d="M296.021 54.1508C296.085 55.0348 295.968 55.9225 295.677 56.7597C295.386 57.5968 294.927 58.3659 294.329 59.0197C292.978 60.1884 291.22 60.7769 289.438 60.6573C288.554 60.7192 287.667 60.6055 286.828 60.3225C285.988 60.0395 285.213 59.593 284.547 59.0087C283.949 58.3569 283.491 57.5898 283.2 56.7545C282.908 55.9191 282.791 55.0331 282.855 54.1508V43.6328H284.888V53.6892C284.769 55.0698 285.16 56.4459 285.987 57.5579C286.439 58.0012 286.981 58.3416 287.577 58.556C288.172 58.7703 288.807 58.8535 289.438 58.7999C290.067 58.8519 290.7 58.7679 291.293 58.5536C291.887 58.3393 292.427 57.9997 292.878 57.5579C293.705 56.4459 294.096 55.0698 293.977 53.6892V43.6768H296.01L296.021 54.1508Z" fill="#004190"/>
<path d="M306.869 53.4364H302.846V60.4045H300.813V43.6328H307.177C308.662 43.5597 310.122 44.0284 311.287 44.9517C311.798 45.3935 312.202 45.9455 312.469 46.5662C312.735 47.1868 312.857 47.8599 312.826 48.5346C312.86 49.6201 312.51 50.6828 311.837 51.535C311.136 52.3751 310.178 52.962 309.111 53.2056L313.848 60.4045H311.43L306.869 53.4364ZM302.846 51.4911H307.144C309.518 51.4911 310.705 50.4909 310.705 48.4906C310.705 46.4903 309.518 45.4902 307.144 45.4902H302.846V51.4911Z" fill="#004190"/>
<path d="M327.938 44.435C329.111 45.1479 330.05 46.1866 330.642 47.4244C331.305 48.8631 331.629 50.4349 331.587 52.0185C331.629 53.5986 331.305 55.1669 330.642 56.6016C330.053 57.8445 329.113 58.8877 327.938 59.602C326.692 60.3403 325.266 60.7206 323.817 60.7011C322.368 60.7206 320.942 60.3403 319.695 59.602C318.52 58.8877 317.58 57.8445 316.992 56.6016C316.325 55.1678 315.997 53.5994 316.035 52.0185C315.998 50.4341 316.325 48.8622 316.992 47.4244C317.584 46.1866 318.523 45.1479 319.695 44.435C320.942 43.6967 322.368 43.3164 323.817 43.3359C325.266 43.3164 326.692 43.6967 327.938 44.435ZM319.684 47.0947C318.607 48.5099 318.072 50.2648 318.179 52.0405C318.072 53.8162 318.607 55.5711 319.684 56.9863C320.194 57.5748 320.831 58.0398 321.547 58.3464C322.263 58.6529 323.039 58.7929 323.817 58.7558C324.595 58.7929 325.371 58.6529 326.087 58.3464C326.802 58.0398 327.439 57.5748 327.949 56.9863C329.023 55.5689 329.557 53.8156 329.455 52.0405C329.557 50.2654 329.023 48.5121 327.949 47.0947C327.444 46.4982 326.809 46.0248 326.093 45.7106C325.376 45.3963 324.598 45.2495 323.817 45.2813C323.035 45.2495 322.257 45.3963 321.541 45.7106C320.825 46.0248 320.19 46.4982 319.684 47.0947" fill="#004190"/>
<path d="M347.424 46.9299L345.666 48.3587C345.296 47.4162 344.667 46.5972 343.852 45.9957C342.98 45.481 341.974 45.2363 340.962 45.2923C339.891 45.2305 338.829 45.5115 337.929 46.0946C337.59 46.3173 337.312 46.6208 337.12 46.9777C336.928 47.3346 336.829 47.7337 336.829 48.1389C336.813 48.6253 336.964 49.1026 337.258 49.4907C337.653 49.914 338.148 50.2315 338.698 50.4139C339.6 50.7379 340.531 50.9735 341.479 51.1173C343.163 51.2804 344.782 51.854 346.193 52.7879C346.651 53.1602 347.014 53.6346 347.255 54.1729C347.495 54.7112 347.606 55.2983 347.578 55.8873C347.593 56.7879 347.311 57.6683 346.776 58.3931C346.186 59.1515 345.399 59.7332 344.501 60.0747C343.414 60.4882 342.257 60.6897 341.094 60.6682C339.59 60.7121 338.099 60.3716 336.764 59.679C335.613 59.0613 334.663 58.1269 334.027 56.9863L335.785 55.5685C336.207 56.5298 336.913 57.339 337.808 57.8876C338.808 58.4653 339.95 58.7544 341.105 58.7228C342.2 58.7771 343.288 58.5259 344.248 57.9975C344.613 57.7949 344.916 57.4963 345.123 57.134C345.33 56.7717 345.434 56.3595 345.424 55.9422C345.426 55.5831 345.333 55.2299 345.153 54.9189C344.973 54.6079 344.714 54.3503 344.402 54.1727C343.276 53.5921 342.055 53.2198 340.797 53.0737C339.104 52.8951 337.477 52.3189 336.049 51.3921C335.588 51.0347 335.219 50.5716 334.974 50.0417C334.729 49.5118 334.615 48.9308 334.642 48.3477C334.64 47.4574 334.909 46.5874 335.412 45.8528C335.962 45.0562 336.723 44.4283 337.61 44.0394C338.645 43.5718 339.772 43.3427 340.907 43.3689C342.214 43.2809 343.519 43.5683 344.668 44.1972C345.816 44.8262 346.762 45.7705 347.391 46.9189" fill="#004190"/>
<path d="M371.076 45.8198C371.847 46.6479 372.439 47.6252 372.818 48.6914C373.196 49.7575 373.351 50.8899 373.274 52.0185C373.35 53.147 373.194 54.279 372.816 55.3449C372.438 56.4109 371.846 57.3883 371.076 58.2172C370.24 58.9785 369.259 59.5651 368.193 59.9426C367.127 60.3201 365.996 60.4808 364.867 60.4153H359.492V43.6436H364.9C366.029 43.5782 367.16 43.7389 368.226 44.1164C369.292 44.4938 370.273 45.0804 371.109 45.8418L371.076 45.8198ZM369.593 56.8324C370.732 55.5179 371.312 53.8099 371.208 52.0734C371.312 50.3336 370.733 48.6219 369.593 47.3035C369.009 46.7172 368.307 46.2613 367.534 45.9658C366.761 45.6703 365.935 45.5418 365.108 45.589H361.525V58.5579H365.108C365.935 58.6029 366.762 58.4724 367.535 58.175C368.308 57.8777 369.009 57.4201 369.593 56.8324Z" fill="#004190"/>
<path d="M389.453 58.5031V60.4045H377.308V43.6328H389.068V45.5452H379.33V50.9526H386.903V52.8539H379.33V58.5031H389.453Z" fill="#004190"/>
<path d="M412.797 58.5031V60.4045H401.158V43.6328H403.191V58.5031H412.797Z" fill="#004190"/>
<path d="M425.282 55.7555H417.688L415.907 60.4045H413.764L420.303 43.6328H422.732L429.239 60.4045H427.041L425.282 55.7555ZM424.546 53.8431L422.282 47.8972L421.49 45.5672L420.754 47.7653L418.468 53.7881L424.546 53.8431Z" fill="#004190"/>
<path d="M452.418 60.4045H449.901L442.889 49.1721L441.109 45.8749H441.076L441.185 48.5676V60.4045H439.251V43.6328H441.768L448.758 54.8213L450.56 58.1734H450.582L450.484 55.4807V43.6328H452.418V60.4045Z" fill="#004190"/>
<path d="M466.827 55.7555H459.232L457.452 60.4045H455.32L461.848 43.6328H464.266L470.772 60.4045H468.574L466.827 55.7555ZM466.09 53.8431L463.826 47.8972L463.046 45.5672H462.991L462.255 47.7653L459.969 53.7881L466.09 53.8431Z" fill="#004190"/>
<path d="M484.027 59.4482C482.792 60.2621 481.34 60.6835 479.862 60.6572C478.416 60.6786 476.993 60.2981 475.751 59.5581C474.57 58.8474 473.626 57.8036 473.037 56.5577C472.378 55.1213 472.055 53.5541 472.091 51.9746C472.057 50.3987 472.38 48.8354 473.037 47.4025C473.622 46.1514 474.567 45.1031 475.751 44.391C476.978 43.6535 478.386 43.2729 479.818 43.292C481.231 43.2437 482.631 43.5859 483.862 44.2811C484.977 44.9619 485.837 45.9887 486.313 47.2046L484.28 48.1938C483.975 47.312 483.408 46.5448 482.653 45.9957C481.84 45.4795 480.89 45.2227 479.928 45.2593C478.865 45.2405 477.819 45.5184 476.905 46.0616C476.023 46.6232 475.326 47.4341 474.905 48.3916C474.406 49.5265 474.162 50.7571 474.191 51.9966C474.089 53.7717 474.623 55.5249 475.696 56.9423C476.204 57.5349 476.84 58.0041 477.556 58.3144C478.272 58.6248 479.049 58.7682 479.829 58.7338C480.877 58.756 481.906 58.4527 482.774 57.8655C483.642 57.2492 484.271 56.3526 484.555 55.3267L486.588 56.085C486.105 57.4372 485.195 58.5948 483.994 59.3822" fill="#004190"/>
<path d="M492.061 43.6328H490.028V60.4045H492.061V43.6328Z" fill="#004190"/>
<path d="M507.921 44.4351C509.105 45.143 510.056 46.1822 510.657 47.4245C511.324 48.8623 511.651 50.4342 511.613 52.0186C511.652 53.5995 511.324 55.1679 510.657 56.6017C510.069 57.8447 509.129 58.8878 507.954 59.6022C506.707 60.3404 505.281 60.7207 503.832 60.7012C502.383 60.7207 500.957 60.3404 499.711 59.6022C498.535 58.8878 497.595 57.8447 497.007 56.6017C496.349 55.1653 496.026 53.5982 496.062 52.0186C496.026 50.4355 496.349 48.8649 497.007 47.4245C497.599 46.1867 498.538 45.148 499.711 44.4351C500.957 43.6968 502.383 43.3165 503.832 43.336C505.281 43.3165 506.707 43.6968 507.954 44.4351H507.921ZM499.667 47.0948C498.593 48.5122 498.059 50.2655 498.161 52.0406C498.059 53.8157 498.593 55.569 499.667 56.9864C500.174 57.5789 500.81 58.0481 501.526 58.3585C502.242 58.6689 503.019 58.8123 503.799 58.7779C504.579 58.8123 505.356 58.6689 506.072 58.3585C506.788 58.0481 507.424 57.5789 507.932 56.9864C509.009 55.5712 509.544 53.8163 509.437 52.0406C509.544 50.2649 509.009 48.51 507.932 47.0948C507.424 46.5023 506.788 46.0331 506.072 45.7227C505.356 45.4123 504.579 45.2689 503.799 45.3033C503.019 45.2689 502.242 45.4123 501.526 45.7227C500.81 46.0331 500.174 46.5023 499.667 47.0948V47.0948ZM506.569 37.7858L504.371 41.5446H502.722L504.173 37.7858H506.569Z" fill="#004190"/>
<path d="M528.704 60.4045H526.187L519.175 49.1721L517.395 45.8749H517.362L517.471 48.5676V60.4045H515.537V43.6328H518.054L525.033 54.8213L526.846 58.1734H526.868L526.77 55.4807V43.6328H528.704V60.4045Z" fill="#004190"/>
<path d="M120.402 41.9402C119.107 40.129 117.334 38.7135 115.281 37.8517C112.245 36.5526 109.059 35.6405 105.796 35.137C101.553 34.4043 98.6225 33.4994 97.0032 32.4223C96.2466 32.0013 95.6175 31.384 95.1823 30.6354C94.7471 29.8869 94.5219 29.0348 94.5303 28.169C94.5212 27.2241 94.7559 26.293 95.2117 25.4653C95.2337 25.4263 95.2595 25.3894 95.2886 25.3554C95.7261 24.5801 96.3305 23.9118 97.0581 23.399C98.1572 22.5088 100.795 21.6076 104.807 21.6076C113.247 21.6076 116.116 27.8393 116.116 27.8393L121.391 24.641C119.908 21.08 114.566 15.4308 104.807 15.4308C101.461 15.3147 98.1303 15.9298 95.0469 17.2333C93.4482 17.9218 91.9825 18.8852 90.7165 20.0799C89.4446 21.2463 88.4592 22.6906 87.837 24.3003C87.2484 25.7639 86.9498 27.3279 86.9578 28.9053C86.8897 31.0349 87.46 33.1362 88.5953 34.9392C89.9327 36.7838 91.7549 38.2218 93.8599 39.0937C96.9742 40.4168 100.236 41.3614 103.576 41.9072C107.642 42.64 110.489 43.5119 112.115 44.523C112.841 44.8813 113.455 45.4331 113.887 46.1177C114.32 46.8023 114.555 47.593 114.566 48.4027C114.576 49.2739 114.372 50.1342 113.973 50.9086C113.918 50.9791 113.874 51.0567 113.841 51.1394C113.347 51.9349 112.663 52.5957 111.852 53.0627L111.324 53.3485C109.446 54.158 107.433 54.609 105.389 54.6783H104.378C103.96 54.6783 103.532 54.6783 103.081 54.6783C94.6512 54.6783 92.7498 50.2821 91.321 48.084C89.7714 48.9083 86.0455 51.2822 86.0455 51.2822C88.6723 55.9972 93.1345 60.899 103.081 60.899H104.444C107.586 60.9633 110.711 60.4299 113.654 59.3274C115.554 58.6174 117.284 57.5166 118.732 56.0961C119.817 55.0877 120.662 53.8482 121.205 52.4692C121.789 51.0433 122.084 49.5152 122.073 47.9741C122.149 45.8362 121.587 43.7239 120.457 41.9072" fill="#004190"/>
<path d="M159.21 41.9404C157.915 40.1292 156.142 38.7137 154.089 37.8518C151.054 36.5513 147.867 35.6391 144.604 35.1372C140.361 34.4044 137.43 33.4996 135.811 32.4225C135.055 32.0014 134.425 31.3841 133.99 30.6356C133.555 29.887 133.33 29.0349 133.338 28.1691C133.329 27.2243 133.564 26.2931 134.02 25.4654C134.042 25.4264 134.067 25.3896 134.097 25.3555C134.534 24.5802 135.138 23.912 135.866 23.3992C136.965 22.5089 139.603 21.6077 143.625 21.6077C152.055 21.6077 154.924 27.8394 154.924 27.8394L160.199 24.6411C158.727 21.0802 153.385 15.431 143.625 15.431C140.276 15.3154 136.942 15.9304 133.855 17.2334C132.256 17.9219 130.791 18.8854 129.525 20.08C128.25 21.2423 127.268 22.688 126.656 24.3004C126.059 25.7618 125.756 27.3268 125.766 28.9055C125.702 31.0345 126.272 33.1345 127.403 34.9393C128.741 36.7839 130.563 38.2219 132.668 39.0938C135.782 40.417 139.044 41.3616 142.384 41.9074C146.45 42.6401 149.297 43.512 150.923 44.5232C151.649 44.8814 152.263 45.4332 152.695 46.1178C153.128 46.8024 153.363 47.5932 153.374 48.4028C153.384 49.274 153.18 50.1343 152.781 50.9087C152.731 50.9824 152.687 51.0596 152.649 51.1395C152.155 51.935 151.471 52.5958 150.659 53.0629L150.132 53.3486C148.258 54.1583 146.248 54.6093 144.208 54.6785H143.186C142.768 54.6785 142.34 54.6785 141.889 54.6785C133.459 54.6785 131.558 50.2822 130.14 48.0841C128.579 48.9084 124.854 51.2824 124.854 51.2824C127.48 55.9974 131.942 60.8992 141.889 60.8992H143.252C146.397 60.9624 149.526 60.4291 152.473 59.3275C154.368 58.615 156.094 57.5144 157.54 56.0963C158.625 55.0878 159.47 53.8483 160.012 52.4694C160.597 51.0434 160.892 49.5154 160.881 47.9742C160.957 45.8363 160.395 43.7241 159.265 41.9074" fill="#004190"/>
<path d="M194.182 16.0463V44.5889L194.446 52.0955H194.38L190.028 43.8525L173.004 16.0463H164.563V60.2725H171.135V31.7189L170.86 24.2233H170.926L175.213 32.3893L192.303 60.2725H200.821V16.0463H194.182Z" fill="#004190"/>
<path d="M37.5 0C27.5563 -4.27072e-07 18.0197 3.94938 10.9874 10.9796C3.95509 18.0099 0.00291434 27.5453 0 37.489C0 47.4346 3.95088 56.9729 10.9835 64.0055C18.0161 71.0381 27.5544 74.989 37.5 74.989C47.4456 74.989 56.9839 71.0381 64.0165 64.0055C71.0491 56.9729 75 47.4346 75 37.489C74.9971 27.5453 71.0449 18.0099 64.0126 10.9796C56.9803 3.94938 47.4437 -4.27071e-07 37.5 0V0ZM37.5 71.1972C33.0734 71.1972 28.6901 70.3254 24.6004 68.6314C20.5108 66.9374 16.7948 64.4544 13.6647 61.3243C10.5346 58.1942 8.05166 54.4783 6.35766 50.3886C4.66366 46.2989 3.79178 41.9156 3.79178 37.489C3.79178 33.0624 4.66366 28.6791 6.35766 24.5894C8.05166 20.4998 10.5346 16.7838 13.6647 13.6537C16.7948 10.5236 20.5108 8.04067 24.6004 6.34668C28.6901 4.65268 33.0734 3.78078 37.5 3.78078C46.44 3.78078 55.0138 7.33217 61.3353 13.6537C67.6569 19.9752 71.2082 28.549 71.2082 37.489C71.2082 46.429 67.6569 55.0028 61.3353 61.3243C55.0138 67.6459 46.44 71.1972 37.5 71.1972" fill="#004190"/>
<path d="M15.0793 55.2607C16.9117 57.5756 19.0917 59.5925 21.5418 61.2396C26.6987 59.5917 32.0868 58.7827 37.5002 58.8437C42.91 58.7839 48.2942 59.5929 53.4476 61.2396C55.8953 59.5894 58.0749 57.5729 59.9101 55.2607C53.7544 49.7644 45.7394 46.8137 37.4892 47.0068C29.2347 46.8076 21.2141 49.7588 15.0574 55.2607" fill="#004190"/>
<path d="M62.4598 51.491C64.199 48.401 65.3435 45.0123 65.8339 41.5006C61.053 35.2469 52.5682 29.7955 37.5111 29.7955C22.4539 29.7955 13.9472 35.2908 9.16626 41.5115C9.66147 45.0222 10.8056 48.41 12.5404 51.502C18.6951 47.1607 27.4217 42.7095 37.522 42.7095C47.6224 42.7095 56.327 47.1058 62.4598 51.502" fill="#004190"/>
<path d="M66.0208 35.3238C65.7543 31.6736 64.784 28.1094 63.1633 24.8278C60.095 20.9977 56.1837 17.9279 51.7342 15.8576C47.2847 13.7872 42.4172 12.7724 37.5112 12.892C32.6005 12.7702 27.7281 13.7852 23.2745 15.8576C18.8209 17.9299 14.9065 21.0037 11.8371 24.8388C10.2164 28.1165 9.246 31.6771 8.97949 35.3238C14.1011 30.6089 23.0035 25.4323 37.5551 25.4323C52.1067 25.4323 60.9542 30.5979 66.0758 35.3238" fill="#009CDE"/>
</g>
<defs>
<clipPath id="clip0_4656_428713">
<rect width="528.924" height="75" fill="white"/>
</clipPath>
</defs>
</svg>
